<svg xmlns="http://www.w3.org/2000/svg" viewBox="0 0 388.64 62.66"><defs><style>.cls-1{fill:#fff;}.cls-2{fill:#31b7db;}</style></defs><g id="Capa_2" data-name="Capa 2"><g id="Capa_1-2" data-name="Capa 1"><path class="cls-1" d="M17.09,62H5.27A5.28,5.28,0,0,1,0,56.71V5.27A5.27,5.27,0,0,1,5.27,0H17.92A30.61,30.61,0,0,1,48.49,30.57,31.44,31.44,0,0,1,17.09,62ZM9.93,52h7.16A21.49,21.49,0,0,0,38.56,30.57,20.66,20.66,0,0,0,17.92,9.93h-8Z"></path><path class="cls-1" d="M64.42,61.6a5,5,0,0,1-5-5V5.93a5,5,0,1,1,9.93,0v50.7A5,5,0,0,1,64.42,61.6Z"></path><path class="cls-1" d="M315.19,61.6a5,5,0,0,1-5-5V5.93a5,5,0,0,1,9.94,0v50.7A5,5,0,0,1,315.19,61.6Z"></path><path class="cls-1" d="M108.37,62.24a5,5,0,0,1-4.48-2.82L79,7.51a5,5,0,0,1,9-4.29l24.89,51.9a5,5,0,0,1-4.48,7.12Z"></path><path class="cls-1" d="M108.64,62.31a5,5,0,0,1-4.47-7.11L129.06,3.3a5,5,0,1,1,9,4.29l-24.9,51.9A5,5,0,0,1,108.64,62.31Z"></path><path class="cls-1" d="M183,9.12l-6.64.15L173,9.35l-1.66,0-.83,0h-.38l-.34,0a20.81,20.81,0,0,0-10.25,3.28,21.36,21.36,0,0,0-4.11,3.47c-.62.65-1.13,1.39-1.73,2a24.17,24.17,0,0,0-1.55,2.2,21,21,0,0,0-2.48,15.85,20.42,20.42,0,0,0,2,5.2,21.45,21.45,0,0,0,1.49,2.37A21.9,21.9,0,0,0,155,46a21.47,21.47,0,0,0,4.35,3.54,23.13,23.13,0,0,0,5.08,2.33,23.43,23.43,0,0,0,5.51,1l.7,0h5.71l6.64,0a4.15,4.15,0,1,1,0,8.3h0l-6.64,0h-5.9c-.32,0-.64,0-1,0A30.18,30.18,0,0,1,155,56.47a31.55,31.55,0,0,1-10.5-10.95c-.33-.54-.6-1.12-.91-1.69s-.55-1.15-.79-1.75l-.37-.89c-.11-.29-.22-.6-.33-.9-.22-.6-.4-1.22-.59-1.83a33.15,33.15,0,0,1-1.18-7.61,30.76,30.76,0,0,1,.72-7.75,30.72,30.72,0,0,1,4.76-10.74,21.55,21.55,0,0,1,2.57-3,30.83,30.83,0,0,1,6.24-4.79,30.12,30.12,0,0,1,15-4h.93l.83,0,1.66,0,3.32.07L183,.82a4.15,4.15,0,0,1,0,8.3Z"></path><path class="cls-1" d="M182.43,36.34h0l-36,0a5,5,0,1,1,0-9.93h0l36,0a5,5,0,1,1,0,9.93Z"></path><path class="cls-1" d="M201.87,62.42a5,5,0,0,1-5-5V34c0-19.56,13-33.76,30.86-33.76a5,5,0,1,1,0,9.93c-12.32,0-20.93,9.8-20.93,23.83V57.45A5,5,0,0,1,201.87,62.42Z"></path><path class="cls-2" d="M295.52,61.36a4.91,4.91,0,0,1-3.45-1.4L239.88,9.48a5,5,0,1,1,6.91-7.14L299,52.82a5,5,0,0,1-3.45,8.54Z"></path><path class="cls-2" d="M243.85,62.66a5,5,0,0,1-3.44-8.55l40.36-38.67a5,5,0,0,1,6.88,7.18L247.28,61.28A5,5,0,0,1,243.85,62.66Z"></path><path class="cls-1" d="M383.68,62.33a5,5,0,0,1-4.48-2.82L354.31,7.61a5,5,0,0,1,8.95-4.29l24.89,51.9a5,5,0,0,1-2.33,6.62A4.81,4.81,0,0,1,383.68,62.33Z"></path><path class="cls-1" d="M333.61,62.26a5,5,0,0,1-4.47-7.12L354,3.24a5,5,0,0,1,9,4.3L338.1,59.44A5,5,0,0,1,333.61,62.26Z"></path></g></g></svg>